<mxfile host="app.diagrams.net" agent="Mozilla/5.0 (Windows NT 10.0; Win64; x64) AppleWebKit/537.36 (KHTML, like Gecko) Chrome/126.0.0.0 YaBrowser/24.7.0.0 Safari/537.36" version="24.8.0">
  <diagram name="Страница — 1" id="cflZmNtTj-d2-WJZahxk">
    <mxGraphModel dx="1002" dy="567" grid="1" gridSize="10" guides="1" tooltips="1" connect="1" arrows="1" fold="1" page="1" pageScale="1" pageWidth="827" pageHeight="1169" math="0" shadow="0">
      <root>
        <mxCell id="0" />
        <mxCell id="1" parent="0" />
        <mxCell id="2Juv7xOIPFVcTLeKxDjf-1" value="Пользователь" style="shape=umlActor;verticalLabelPosition=bottom;verticalAlign=top;html=1;outlineConnect=0;" parent="1" vertex="1">
          <mxGeometry x="400" y="260" width="40" height="70" as="geometry" />
        </mxCell>
        <mxCell id="2Juv7xOIPFVcTLeKxDjf-2" value="" style="endArrow=none;html=1;rounded=0;" parent="1" edge="1">
          <mxGeometry width="50" height="50" relative="1" as="geometry">
            <mxPoint x="330" y="210" as="sourcePoint" />
            <mxPoint x="400" y="250" as="targetPoint" />
          </mxGeometry>
        </mxCell>
        <mxCell id="7VD3s2Kwgjr2kYF0mM19-1" value="Перевод средств" style="ellipse;whiteSpace=wrap;html=1;" vertex="1" parent="1">
          <mxGeometry x="230" y="170" width="110" height="50" as="geometry" />
        </mxCell>
        <mxCell id="7VD3s2Kwgjr2kYF0mM19-2" value="include" style="html=1;verticalAlign=bottom;endArrow=open;dashed=1;endSize=8;curved=0;rounded=0;exitX=0.262;exitY=0.984;exitDx=0;exitDy=0;exitPerimeter=0;" edge="1" parent="1" source="7VD3s2Kwgjr2kYF0mM19-1" target="7VD3s2Kwgjr2kYF0mM19-3">
          <mxGeometry relative="1" as="geometry">
            <mxPoint x="290" y="320" as="sourcePoint" />
            <mxPoint x="190" y="280" as="targetPoint" />
          </mxGeometry>
        </mxCell>
        <mxCell id="7VD3s2Kwgjr2kYF0mM19-3" value="Проверка данных" style="ellipse;whiteSpace=wrap;html=1;" vertex="1" parent="1">
          <mxGeometry x="90" y="265" width="90" height="60" as="geometry" />
        </mxCell>
        <mxCell id="7VD3s2Kwgjr2kYF0mM19-4" value="include" style="html=1;verticalAlign=bottom;endArrow=open;dashed=1;endSize=8;curved=0;rounded=0;exitX=0.5;exitY=1;exitDx=0;exitDy=0;" edge="1" parent="1" source="7VD3s2Kwgjr2kYF0mM19-1" target="7VD3s2Kwgjr2kYF0mM19-5">
          <mxGeometry relative="1" as="geometry">
            <mxPoint x="325" y="349.5" as="sourcePoint" />
            <mxPoint x="320" y="310" as="targetPoint" />
          </mxGeometry>
        </mxCell>
        <mxCell id="7VD3s2Kwgjr2kYF0mM19-5" value="Инициация перевода" style="ellipse;whiteSpace=wrap;html=1;" vertex="1" parent="1">
          <mxGeometry x="260" y="290" width="90" height="70" as="geometry" />
        </mxCell>
        <mxCell id="7VD3s2Kwgjr2kYF0mM19-6" value="Подтверждение перевода" style="ellipse;whiteSpace=wrap;html=1;" vertex="1" parent="1">
          <mxGeometry x="120" y="420" width="120" height="80" as="geometry" />
        </mxCell>
        <mxCell id="7VD3s2Kwgjr2kYF0mM19-7" value="extend" style="html=1;verticalAlign=bottom;endArrow=open;dashed=1;endSize=8;curved=0;rounded=0;" edge="1" parent="1" source="7VD3s2Kwgjr2kYF0mM19-6" target="7VD3s2Kwgjr2kYF0mM19-5">
          <mxGeometry relative="1" as="geometry">
            <mxPoint x="325" y="400" as="sourcePoint" />
            <mxPoint x="245" y="400" as="targetPoint" />
          </mxGeometry>
        </mxCell>
        <mxCell id="7VD3s2Kwgjr2kYF0mM19-8" value="extend" style="html=1;verticalAlign=bottom;endArrow=open;dashed=1;endSize=8;curved=0;rounded=0;exitX=0.5;exitY=0;exitDx=0;exitDy=0;entryX=0.293;entryY=0.923;entryDx=0;entryDy=0;entryPerimeter=0;" edge="1" parent="1" source="7VD3s2Kwgjr2kYF0mM19-6" target="7VD3s2Kwgjr2kYF0mM19-3">
          <mxGeometry relative="1" as="geometry">
            <mxPoint x="160" y="370" as="sourcePoint" />
            <mxPoint x="80" y="370" as="targetPoint" />
          </mxGeometry>
        </mxCell>
        <mxCell id="7VD3s2Kwgjr2kYF0mM19-9" value="" style="endArrow=none;html=1;rounded=0;" edge="1" parent="1" target="7VD3s2Kwgjr2kYF0mM19-10">
          <mxGeometry width="50" height="50" relative="1" as="geometry">
            <mxPoint x="440" y="250" as="sourcePoint" />
            <mxPoint x="450" y="250" as="targetPoint" />
          </mxGeometry>
        </mxCell>
        <mxCell id="7VD3s2Kwgjr2kYF0mM19-10" value="Создание счета" style="ellipse;whiteSpace=wrap;html=1;" vertex="1" parent="1">
          <mxGeometry x="550" y="100" width="120" height="80" as="geometry" />
        </mxCell>
        <mxCell id="7VD3s2Kwgjr2kYF0mM19-11" value="include" style="html=1;verticalAlign=bottom;endArrow=open;dashed=1;endSize=8;curved=0;rounded=0;exitX=0.59;exitY=0.955;exitDx=0;exitDy=0;exitPerimeter=0;entryX=0.42;entryY=0.016;entryDx=0;entryDy=0;entryPerimeter=0;" edge="1" parent="1" source="7VD3s2Kwgjr2kYF0mM19-10" target="7VD3s2Kwgjr2kYF0mM19-12">
          <mxGeometry relative="1" as="geometry">
            <mxPoint x="590" y="290" as="sourcePoint" />
            <mxPoint x="510" y="290" as="targetPoint" />
          </mxGeometry>
        </mxCell>
        <mxCell id="7VD3s2Kwgjr2kYF0mM19-12" value="Заполнение формы" style="ellipse;whiteSpace=wrap;html=1;" vertex="1" parent="1">
          <mxGeometry x="520" y="230" width="90" height="60" as="geometry" />
        </mxCell>
        <mxCell id="7VD3s2Kwgjr2kYF0mM19-14" value="include" style="html=1;verticalAlign=bottom;endArrow=open;dashed=1;endSize=8;curved=0;rounded=0;exitX=1;exitY=1;exitDx=0;exitDy=0;" edge="1" parent="1" source="7VD3s2Kwgjr2kYF0mM19-10" target="7VD3s2Kwgjr2kYF0mM19-16">
          <mxGeometry relative="1" as="geometry">
            <mxPoint x="730" y="294.5" as="sourcePoint" />
            <mxPoint x="710" y="260" as="targetPoint" />
          </mxGeometry>
        </mxCell>
        <mxCell id="7VD3s2Kwgjr2kYF0mM19-16" value="Верификация аккаунта" style="ellipse;whiteSpace=wrap;html=1;" vertex="1" parent="1">
          <mxGeometry x="650" y="220" width="100" height="70" as="geometry" />
        </mxCell>
        <mxCell id="7VD3s2Kwgjr2kYF0mM19-17" value="" style="endArrow=none;html=1;rounded=0;" edge="1" parent="1" target="7VD3s2Kwgjr2kYF0mM19-18">
          <mxGeometry width="50" height="50" relative="1" as="geometry">
            <mxPoint x="450" y="325" as="sourcePoint" />
            <mxPoint x="620" y="340" as="targetPoint" />
          </mxGeometry>
        </mxCell>
        <mxCell id="7VD3s2Kwgjr2kYF0mM19-18" value="Оплата услуг" style="ellipse;whiteSpace=wrap;html=1;" vertex="1" parent="1">
          <mxGeometry x="650" y="295" width="110" height="60" as="geometry" />
        </mxCell>
        <mxCell id="7VD3s2Kwgjr2kYF0mM19-19" value="include" style="html=1;verticalAlign=bottom;endArrow=open;dashed=1;endSize=8;curved=0;rounded=0;exitX=0;exitY=1;exitDx=0;exitDy=0;" edge="1" parent="1" source="7VD3s2Kwgjr2kYF0mM19-18" target="7VD3s2Kwgjr2kYF0mM19-20">
          <mxGeometry relative="1" as="geometry">
            <mxPoint x="540" y="419" as="sourcePoint" />
            <mxPoint x="460" y="419" as="targetPoint" />
          </mxGeometry>
        </mxCell>
        <mxCell id="7VD3s2Kwgjr2kYF0mM19-20" value="Выбор услуги" style="ellipse;whiteSpace=wrap;html=1;" vertex="1" parent="1">
          <mxGeometry x="580" y="410" width="120" height="80" as="geometry" />
        </mxCell>
        <mxCell id="7VD3s2Kwgjr2kYF0mM19-21" value="include" style="html=1;verticalAlign=bottom;endArrow=open;dashed=1;endSize=8;curved=0;rounded=0;exitX=0.687;exitY=0.967;exitDx=0;exitDy=0;exitPerimeter=0;" edge="1" parent="1" source="7VD3s2Kwgjr2kYF0mM19-18" target="7VD3s2Kwgjr2kYF0mM19-22">
          <mxGeometry relative="1" as="geometry">
            <mxPoint x="710" y="400" as="sourcePoint" />
            <mxPoint x="660" y="420" as="targetPoint" />
          </mxGeometry>
        </mxCell>
        <mxCell id="7VD3s2Kwgjr2kYF0mM19-22" value="Подтверждение оплаты" style="ellipse;whiteSpace=wrap;html=1;" vertex="1" parent="1">
          <mxGeometry x="760" y="400" width="120" height="80" as="geometry" />
        </mxCell>
        <mxCell id="7VD3s2Kwgjr2kYF0mM19-24" value="" style="endArrow=none;html=1;rounded=0;" edge="1" parent="1" target="7VD3s2Kwgjr2kYF0mM19-25">
          <mxGeometry width="50" height="50" relative="1" as="geometry">
            <mxPoint x="440" y="360" as="sourcePoint" />
            <mxPoint x="490" y="510" as="targetPoint" />
          </mxGeometry>
        </mxCell>
        <mxCell id="7VD3s2Kwgjr2kYF0mM19-25" value="История операций" style="ellipse;whiteSpace=wrap;html=1;" vertex="1" parent="1">
          <mxGeometry x="450" y="410" width="110" height="50" as="geometry" />
        </mxCell>
        <mxCell id="7VD3s2Kwgjr2kYF0mM19-26" value="include" style="html=1;verticalAlign=bottom;endArrow=open;dashed=1;endSize=8;curved=0;rounded=0;" edge="1" parent="1" source="7VD3s2Kwgjr2kYF0mM19-25" target="7VD3s2Kwgjr2kYF0mM19-28">
          <mxGeometry relative="1" as="geometry">
            <mxPoint x="430" y="540" as="sourcePoint" />
            <mxPoint x="350" y="540" as="targetPoint" />
          </mxGeometry>
        </mxCell>
        <mxCell id="7VD3s2Kwgjr2kYF0mM19-28" value="Просмотр операций" style="ellipse;whiteSpace=wrap;html=1;" vertex="1" parent="1">
          <mxGeometry x="360" y="500" width="100" height="80" as="geometry" />
        </mxCell>
        <mxCell id="7VD3s2Kwgjr2kYF0mM19-29" value="include" style="html=1;verticalAlign=bottom;endArrow=open;dashed=1;endSize=8;curved=0;rounded=0;exitX=0.5;exitY=1;exitDx=0;exitDy=0;" edge="1" parent="1" source="7VD3s2Kwgjr2kYF0mM19-25" target="7VD3s2Kwgjr2kYF0mM19-30">
          <mxGeometry relative="1" as="geometry">
            <mxPoint x="480" y="585" as="sourcePoint" />
            <mxPoint x="480" y="580" as="targetPoint" />
          </mxGeometry>
        </mxCell>
        <mxCell id="7VD3s2Kwgjr2kYF0mM19-30" value="Фильтрация по дате" style="ellipse;whiteSpace=wrap;html=1;" vertex="1" parent="1">
          <mxGeometry x="480" y="520" width="170" height="60" as="geometry" />
        </mxCell>
        <mxCell id="7VD3s2Kwgjr2kYF0mM19-31" value="" style="endArrow=none;html=1;rounded=0;" edge="1" parent="1" target="7VD3s2Kwgjr2kYF0mM19-32">
          <mxGeometry width="50" height="50" relative="1" as="geometry">
            <mxPoint x="380" y="360" as="sourcePoint" />
            <mxPoint x="240" y="510" as="targetPoint" />
          </mxGeometry>
        </mxCell>
        <mxCell id="7VD3s2Kwgjr2kYF0mM19-32" value="Блокировка счета" style="ellipse;whiteSpace=wrap;html=1;" vertex="1" parent="1">
          <mxGeometry x="150" y="510" width="120" height="50" as="geometry" />
        </mxCell>
        <mxCell id="7VD3s2Kwgjr2kYF0mM19-33" value="include" style="html=1;verticalAlign=bottom;endArrow=open;dashed=1;endSize=8;curved=0;rounded=0;exitX=0;exitY=1;exitDx=0;exitDy=0;" edge="1" parent="1" source="7VD3s2Kwgjr2kYF0mM19-32" target="7VD3s2Kwgjr2kYF0mM19-34">
          <mxGeometry relative="1" as="geometry">
            <mxPoint x="170" y="630" as="sourcePoint" />
            <mxPoint x="110" y="620" as="targetPoint" />
          </mxGeometry>
        </mxCell>
        <mxCell id="7VD3s2Kwgjr2kYF0mM19-34" value="Идентификация" style="ellipse;whiteSpace=wrap;html=1;" vertex="1" parent="1">
          <mxGeometry x="50" y="580" width="120" height="80" as="geometry" />
        </mxCell>
        <mxCell id="7VD3s2Kwgjr2kYF0mM19-35" value="return" style="html=1;verticalAlign=bottom;endArrow=open;dashed=1;endSize=8;curved=0;rounded=0;exitX=0.653;exitY=0.96;exitDx=0;exitDy=0;exitPerimeter=0;" edge="1" parent="1" source="7VD3s2Kwgjr2kYF0mM19-32" target="7VD3s2Kwgjr2kYF0mM19-36">
          <mxGeometry relative="1" as="geometry">
            <mxPoint x="320" y="630" as="sourcePoint" />
            <mxPoint x="260" y="630" as="targetPoint" />
          </mxGeometry>
        </mxCell>
        <mxCell id="7VD3s2Kwgjr2kYF0mM19-36" value="Активация блокировки" style="ellipse;whiteSpace=wrap;html=1;" vertex="1" parent="1">
          <mxGeometry x="200" y="590" width="140" height="40" as="geometry" />
        </mxCell>
        <mxCell id="7VD3s2Kwgjr2kYF0mM19-37" value="20. Платежная Система" style="rounded=0;whiteSpace=wrap;html=1;align=left;" vertex="1" parent="1">
          <mxGeometry width="120" height="60" as="geometry" />
        </mxCell>
      </root>
    </mxGraphModel>
  </diagram>
</mxfile>
